# xmcd CD database file
#
# Track frame offsets:
#	150
#	15878
#	30691
#	45998
#	59014
#	73580
#	87035
#	109297
#	125144
#	137332
#	153949
#	169894
#	180332
#	196136
#	212077
#	225493
#	241074
#	256694
#	271240
#	286335
#	300695
#	314593
#	328460
#
# Disc length: 4558 seconds
#
# Revision: 5
# Processed by: cddbd v1.5.1PL2 Copyright (c) Steve Scherf et al.
# Submitted via: CDex 1.51
#
DISCID=3a11cc17
DTITLE=Glen Miller and his Orchestra - Collection CD2
DYEAR=2001
DGENRE=Jazz
TTITLE0=Moonlight Serenade
TTITLE1=Pennsylvania 6-5000
TTITLE2=American Patrol
TTITLE3=Little Brown Jug
TTITLE4=My Blue Heaven
TTITLE5=Alice Blue Gown
TTITLE6=Anvil Chorus
TTITLE7=Sunrise Serenade
TTITLE8=Chip off the old block
TTITLE9=I dreamt I dwelt in Harlem
TTITLE10=King Porter Stomp
TTITLE11=Danny boy (Londonderry air)
TTITLE12=Fremeso
TTITLE13=Boulder buff
TTITLE14=Yours is my heart alone
TTITLE15=Stardust
TTITLE16=Take the "A" train
TTITLE17=Slow Freight
TTITLE18=Rainbow rhapsody
TTITLE19=Wonderful one
TTITLE20=Long tall mama
TTITLE21=Rhapsody in blue
TTITLE22=Adios
EXTD=YEAR: 2001
EXTT0=
EXTT1=
EXTT2=
EXTT3=
EXTT4=
EXTT5=
EXTT6=
EXTT7=
EXTT8=
EXTT9=
EXTT10=
EXTT11=
EXTT12=
EXTT13=
EXTT14=
EXTT15=
EXTT16=
EXTT17=
EXTT18=
EXTT19=
EXTT20=
EXTT21=
EXTT22=
PLAYORDER=
